<mxfile host="65bd71144e">
    <diagram id="IWmowuHI-qslYmnXpUIv" name="Page-1">
        <mxGraphModel dx="378" dy="439" grid="1" gridSize="10" guides="1" tooltips="1" connect="1" arrows="1" fold="1" page="1" pageScale="1" pageWidth="827" pageHeight="1169" math="0" shadow="0">
            <root>
                <mxCell id="0"/>
                <mxCell id="1" parent="0"/>
                <mxCell id="2" value="&lt;pre style=&quot;margin-top: 0px; background-color: var(--vscode-textCodeBlock-background); border: 1px solid var(--vscode-widget-border); padding: 16px; border-radius: 3px; overflow: auto; color: rgb(171, 178, 191); text-align: start;&quot;&gt;&lt;code style=&quot;font-family: var(--vscode-editor-font-family, &amp;quot;SF Mono&amp;quot;, Monaco, Menlo, Consolas, &amp;quot;Ubuntu Mono&amp;quot;, &amp;quot;Liberation Mono&amp;quot;, &amp;quot;DejaVu Sans Mono&amp;quot;, &amp;quot;Courier New&amp;quot;, monospace); line-height: 1.357em; tab-size: 4;&quot;&gt;&lt;font style=&quot;font-size: 29px;&quot;&gt;ADOBECODEBANC&lt;/font&gt;&lt;/code&gt;&lt;/pre&gt;" style="text;html=1;align=center;verticalAlign=middle;resizable=0;points=[];autosize=1;strokeColor=none;fillColor=none;" parent="1" vertex="1">
                    <mxGeometry x="75" y="100" width="280" height="80" as="geometry"/>
                </mxCell>
                <mxCell id="3" value="&lt;font style=&quot;font-size: 10px;&quot;&gt;r&lt;/font&gt;" style="text;html=1;align=center;verticalAlign=middle;resizable=0;points=[];autosize=1;strokeColor=none;fillColor=none;fontSize=41;" parent="1" vertex="1">
                    <mxGeometry x="180" y="60" width="30" height="60" as="geometry"/>
                </mxCell>
                <mxCell id="4" value="&lt;font style=&quot;font-size: 10px;&quot;&gt;l&lt;br&gt;&lt;/font&gt;" style="text;html=1;align=center;verticalAlign=middle;resizable=0;points=[];autosize=1;strokeColor=none;fillColor=none;fontSize=41;" parent="1" vertex="1">
                    <mxGeometry x="90" y="120" width="30" height="60" as="geometry"/>
                </mxCell>
                <mxCell id="5" value="&lt;font face=&quot;Menlo, Monaco, Courier New, monospace&quot;&gt;&lt;span style=&quot;font-size: 22px;&quot;&gt;A 1&lt;br&gt;B 1&lt;br&gt;C 1&lt;br&gt;&lt;/span&gt;&lt;/font&gt;" style="text;whiteSpace=wrap;html=1;fontSize=29;verticalAlign=middle;align=center;" parent="1" vertex="1">
                    <mxGeometry x="120" y="260" width="60" height="40" as="geometry"/>
                </mxCell>
                <mxCell id="7" value="&lt;font face=&quot;Menlo, Monaco, Courier New, monospace&quot;&gt;&lt;span style=&quot;font-size: 22px;&quot;&gt;A 1&lt;br&gt;B 1&lt;br&gt;C 1&lt;br&gt;&lt;/span&gt;&lt;/font&gt;" style="text;whiteSpace=wrap;html=1;fontSize=29;verticalAlign=middle;align=center;" parent="1" vertex="1">
                    <mxGeometry x="310" y="260" width="60" height="40" as="geometry"/>
                </mxCell>
                <mxCell id="9" value="targetMap" style="text;html=1;align=center;verticalAlign=middle;resizable=0;points=[];autosize=1;strokeColor=none;fillColor=none;fontSize=22;" parent="1" vertex="1">
                    <mxGeometry x="90" y="190" width="120" height="40" as="geometry"/>
                </mxCell>
                <mxCell id="10" value="currrentMap" style="text;html=1;align=center;verticalAlign=middle;resizable=0;points=[];autosize=1;strokeColor=none;fillColor=none;fontSize=22;" parent="1" vertex="1">
                    <mxGeometry x="260" y="190" width="140" height="40" as="geometry"/>
                </mxCell>
                <mxCell id="12" value="&lt;font style=&quot;font-size: 19px;&quot;&gt;letterCounterï¼š3&lt;/font&gt;" style="text;html=1;align=center;verticalAlign=middle;resizable=0;points=[];autosize=1;strokeColor=none;fillColor=none;" vertex="1" parent="1">
                    <mxGeometry x="90" y="30" width="160" height="40" as="geometry"/>
                </mxCell>
            </root>
        </mxGraphModel>
    </diagram>
</mxfile>